# xmcd CD database file
#
# Track frame offsets:
#	150
#	16105
#	35226
#	54308
#	71549
#	86650
#	95119
#	124881
#
# Disc length: 2405 seconds
#
# Revision: 1
# Processed by: cddbd v1.5.1PL0 Copyright (c) Steve Scherf et al.
# Submitted via: CDex 1.51
#
DISCID=69096308
DTITLE=Sticky Wicket - Strive
DYEAR=2001
DGENRE=New Age
TTITLE0=concrete
TTITLE1=sticky wicket
TTITLE2=always
TTITLE3=love for sale
TTITLE4=simplicity
TTITLE5=six
TTITLE6=fiasko
TTITLE7=got her
EXTD=YEAR: 2001
EXTT0=
EXTT1=
EXTT2=
EXTT3=
EXTT4=
EXTT5=
EXTT6=
EXTT7=
PLAYORDER=
